<svg width="20" height="20" viewBox="0 0 20 20" fill="none" xmlns="http://www.w3.org/2000/svg">
<g opacity="0.87">
<path fill-rule="evenodd" clip-rule="evenodd" d="M2.50118 3.19447L2.56163 3.13129C4.16782 1.52496 5.21378 1.09918 6.3298 1.74094C6.65083 1.92555 6.95179 2.18395 7.36103 2.5996L8.61634 3.90128C9.30969 4.65786 9.46732 5.38357 9.24155 6.23347L9.21044 6.34598L9.17592 6.45785L9.00811 6.95021C8.64893 8.05436 8.79889 8.67732 10.0768 9.95491C11.4057 11.2835 12.026 11.3922 13.2154 10.9766L13.4273 10.9029L13.6836 10.8197L13.7958 10.7885C14.6992 10.5475 15.4623 10.7398 16.2716 11.5486L17.283 12.5256L17.5808 12.8184C17.9108 13.155 18.129 13.4217 18.2902 13.7037C18.9279 14.8194 18.5017 15.8647 16.8492 17.511L16.692 17.6703C16.4452 17.9081 16.2147 18.0785 15.8761 18.2392C15.3076 18.5091 14.6361 18.6109 13.8557 18.5024C11.9329 18.235 9.49405 16.7178 6.40381 13.6283C6.15226 13.3768 5.91133 13.1302 5.68079 12.8883L5.23348 12.4109C1.04193 7.85696 0.672153 5.05949 2.38989 3.30501L2.50118 3.19447ZM6.34954 3.35585C6.07804 3.08819 5.88083 2.92502 5.70696 2.82504C5.32235 2.60387 4.90711 2.69736 4.13861 3.3588L3.89713 3.57453C3.85502 3.61341 3.81193 3.65377 3.76785 3.69565L3.49095 3.96534L3.466 3.99651L3.27829 4.1851C2.82466 4.64844 2.60979 5.21394 2.79495 6.18647C3.09879 7.78232 4.48954 9.94718 7.28787 12.7448C10.2036 15.6598 12.4252 17.0418 14.0282 17.2648C14.9627 17.3947 15.4394 17.1684 15.9255 16.6704L16.2962 16.2963C16.47 16.1144 16.6186 15.9495 16.744 15.7989L16.9151 15.5833C17.3523 15.001 17.3922 14.6516 17.2052 14.3245C17.1341 14.2 17.0306 14.0635 16.8799 13.8968L16.6756 13.6809L16.5546 13.5599L15.2786 12.3277C14.8522 11.9345 14.5608 11.8787 14.1183 11.9968L13.9906 12.0335L13.462 12.2129C11.9286 12.7082 10.8224 12.468 9.19331 10.8394C7.50611 9.15262 7.30823 8.02622 7.87355 6.40439L7.90981 6.30017L8.0101 5.99802L8.05939 5.80543C8.14681 5.38629 8.047 5.09405 7.59644 4.64341C7.57788 4.62486 7.55715 4.60396 7.53459 4.58108L6.34954 3.35585Z" fill="#CBBBB8"/>
</g>
</svg>
