<svg width="36" height="31" viewBox="0 0 36 31" fill="none" xmlns="http://www.w3.org/2000/svg">
<path opacity="0.8" fill-rule="evenodd" clip-rule="evenodd" d="M36 15.5C36 14.9128 35.763 14.3497 35.3411 13.9345C34.9192 13.5194 34.3469 13.2861 33.7503 13.2861H7.68466L17.3451 3.78412C17.7675 3.36841 18.0049 2.80458 18.0049 2.21668C18.0049 1.62878 17.7675 1.06496 17.3451 0.649252C16.9226 0.233543 16.3497 0 15.7523 0C15.1548 0 14.5819 0.233543 14.1594 0.649252L0.660947 13.9326C0.451436 14.1382 0.285213 14.3825 0.171797 14.6515C0.0583803 14.9205 -2.77296e-08 15.2088 -2.77296e-08 15.5C-2.77296e-08 15.7912 0.0583803 16.0795 0.171797 16.3485C0.285213 16.6175 0.451436 16.8618 0.660947 17.0674L14.1594 30.3508C14.5819 30.7665 15.1548 31 15.7523 31C16.3497 31 16.9226 30.7665 17.3451 30.3508C17.7675 29.935 18.0049 29.3712 18.0049 28.7833C18.0049 28.1954 17.7675 27.6316 17.3451 27.2159L7.68466 17.7139H33.7503C34.3469 17.7139 34.9192 17.4806 35.3411 17.0655C35.763 16.6503 36 16.0872 36 15.5Z" fill="#D7D3CF"/>
</svg>
