<svg width="20" height="20" viewBox="0 0 20 20" fill="none" xmlns="http://www.w3.org/2000/svg">
<g opacity="0.87">
<path fill-rule="evenodd" clip-rule="evenodd" d="M10.022 11.4297C9.46445 11.4297 8.90862 11.2456 8.44362 10.8772L4.70612 7.86389C4.43695 7.64723 4.39529 7.25306 4.61112 6.98473C4.82862 6.71723 5.22195 6.67473 5.49029 6.89056L9.22445 9.90056C9.69362 10.2722 10.3545 10.2722 10.827 9.89723L14.5236 6.89223C14.792 6.67306 15.1853 6.71473 15.4036 6.98306C15.6211 7.25056 15.5803 7.64389 15.3128 7.86223L11.6095 10.8722C11.1411 11.2439 10.5811 11.4297 10.022 11.4297" fill="#CBBBB8"/>
<mask id="mask0_265_5975" style="mask-type:alpha" maskUnits="userSpaceOnUse" x="1" y="1" width="18" height="18">
<path fill-rule="evenodd" clip-rule="evenodd" d="M1.0415 1.875H18.9581V18.125H1.0415V1.875Z" fill="white"/>
</mask>
<g mask="url(#mask0_265_5975)">
<path fill-rule="evenodd" clip-rule="evenodd" d="M5.90734 16.875H14.0907C14.0923 16.8733 14.099 16.875 14.104 16.875C15.0548 16.875 15.8982 16.535 16.5448 15.8892C17.2957 15.1417 17.7082 14.0675 17.7082 12.865V7.14167C17.7082 4.81417 16.1865 3.125 14.0907 3.125H5.909C3.81317 3.125 2.2915 4.81417 2.2915 7.14167V12.865C2.2915 14.0675 2.70484 15.1417 3.45484 15.8892C4.1015 16.535 4.94567 16.875 5.89567 16.875H5.90734ZM5.89317 18.125C4.60734 18.125 3.459 17.6583 2.57234 16.775C1.58484 15.79 1.0415 14.4017 1.0415 12.865V7.14167C1.0415 4.13917 3.134 1.875 5.909 1.875H14.0907C16.8657 1.875 18.9582 4.13917 18.9582 7.14167V12.865C18.9582 14.4017 18.4148 15.79 17.4273 16.775C16.5415 17.6575 15.3923 18.125 14.104 18.125H14.0907H5.909H5.89317Z" fill="#CBBBB8"/>
</g>
</g>
</svg>
