<svg width="36" height="31" viewBox="0 0 36 31" fill="none" xmlns="http://www.w3.org/2000/svg">
<path opacity="0.8" fill-rule="evenodd" clip-rule="evenodd" d="M0 15.5C0 14.9128 0.237027 14.3497 0.658937 13.9345C1.08085 13.5194 1.65308 13.2861 2.24975 13.2861H28.3153L18.6549 3.78412C18.2325 3.36841 17.9951 2.80458 17.9951 2.21668C17.9951 1.62878 18.2325 1.06496 18.6549 0.649252C19.0774 0.233543 19.6503 0 20.2477 0C20.8452 0 21.4181 0.233543 21.8406 0.649252L35.3391 13.9326C35.5486 14.1382 35.7148 14.3825 35.8282 14.6515C35.9416 14.9205 36 15.2088 36 15.5C36 15.7912 35.9416 16.0795 35.8282 16.3485C35.7148 16.6175 35.5486 16.8618 35.3391 17.0674L21.8406 30.3507C21.4181 30.7665 20.8452 31 20.2477 31C19.6503 31 19.0774 30.7665 18.6549 30.3507C18.2325 29.935 17.9951 29.3712 17.9951 28.7833C17.9951 28.1954 18.2325 27.6316 18.6549 27.2159L28.3153 17.7139H2.24975C1.65308 17.7139 1.08085 17.4806 0.658937 17.0655C0.237027 16.6503 0 16.0872 0 15.5Z" fill="#D7D3CF"/>
</svg>
