<svg width="20" height="20" viewBox="0 0 20 20" fill="none" xmlns="http://www.w3.org/2000/svg">
<g opacity="0.87">
<mask id="mask0_265_5967" style="mask-type:alpha" maskUnits="userSpaceOnUse" x="1" y="1" width="18" height="18">
<path fill-rule="evenodd" clip-rule="evenodd" d="M1.87549 1.87549H18.1247V18.1247H1.87549V1.87549Z" fill="white"/>
</mask>
<g mask="url(#mask0_265_5967)">
<path fill-rule="evenodd" clip-rule="evenodd" d="M9.21312 11.7242L12.2606 16.6683C12.3939 16.885 12.6023 16.8825 12.6864 16.8708C12.7706 16.8592 12.9731 16.8075 13.0464 16.5617L16.8573 3.69083C16.9239 3.46333 16.8014 3.30833 16.7464 3.25333C16.6931 3.19833 16.5406 3.08083 16.3198 3.14333L3.43978 6.91499C3.19562 6.98666 3.14228 7.19166 3.13062 7.27583C3.11895 7.36166 3.11562 7.57416 3.33145 7.71L8.33228 10.8375L12.7506 6.3725C12.9931 6.1275 13.3889 6.125 13.6348 6.3675C13.8806 6.61 13.8823 7.00666 13.6398 7.25166L9.21312 11.7242ZM12.6213 18.1251C12.0413 18.1251 11.5096 17.8301 11.1963 17.3234L7.96544 12.0809L2.66878 8.76843C2.09794 8.41093 1.79961 7.77426 1.89211 7.10509C1.98378 6.43593 2.44294 5.90426 3.08794 5.71509L15.9679 1.94343C16.5604 1.77009 17.1954 1.93426 17.6321 2.36926C18.0688 2.80843 18.2313 3.45009 18.0546 4.04509L14.2438 16.9151C14.0529 17.5626 13.5196 18.0201 12.8521 18.1093C12.7738 18.1193 12.6979 18.1251 12.6213 18.1251V18.1251Z" fill="#CBBBB8"/>
</g>
</g>
</svg>
