<svg width="24" height="18" viewBox="0 0 24 18" fill="none" xmlns="http://www.w3.org/2000/svg">
<path fill-rule="evenodd" clip-rule="evenodd" d="M16.9965 13.0439C17.0889 15.1377 15.3991 16.9082 13.2224 16.9972C13.0621 17.004 5.24604 16.9882 5.24604 16.9882C3.07991 17.1526 1.18412 15.5961 1.01326 13.5102C1.00039 13.3547 1.0039 4.96824 1.0039 4.96824C0.907938 2.87219 2.59543 1.09713 4.77326 1.00477C4.93593 0.996889 12.7415 1.01153 12.7415 1.01153C14.9181 0.849343 16.8198 2.41716 16.9883 4.51322C17 4.66414 16.9965 13.0439 16.9965 13.0439Z" stroke="#E9F1F7" stroke-width="1.5" stroke-linecap="round" stroke-linejoin="round"/>
<path opacity="0.4" d="M17 6.69119L20.7635 3.61117C21.696 2.84774 23.0949 3.51289 23.0938 4.71632L23.08 13.1152C23.0789 14.3187 21.6789 14.9781 20.7486 14.2147L17 11.1347" stroke="#E9F1F7" stroke-width="1.5" stroke-linecap="round" stroke-linejoin="round"/>
</svg>
